<svg xmlns="http://www.w3.org/2000/svg" width="120" height="56" fill="none" viewBox="0 0 120 56"><rect width="120" height="56" fill="#F1F5F9" rx="4"/><path fill="#F1F5F9" d="M65.6589 35.194C68.0564 35.194 70 33.2504 70 30.8529C70 28.4554 68.0564 26.5117 65.6589 26.5117H65.6345C65.6507 26.333 65.6589 26.152 65.6589 25.9691C65.6589 22.6724 62.9864 20 59.6899 20C56.3933 20 53.7209 22.6724 53.7209 25.9691C53.7209 25.9742 53.7209 25.9794 53.7209 25.9845C51.5979 26.4155 50 28.2925 50 30.5427C50 33.1115 52.0824 35.1939 54.6511 35.1939"/><path stroke="#90A1B9" stroke-linecap="round" stroke-linejoin="round" stroke-width="2" d="M65.6589 35.194C68.0564 35.194 70 33.2504 70 30.8529C70 28.4554 68.0564 26.5117 65.6589 26.5117H65.6345C65.6507 26.333 65.6589 26.152 65.6589 25.9691C65.6589 22.6724 62.9864 20 59.6899 20C56.3933 20 53.7209 22.6724 53.7209 25.9691C53.7209 25.9742 53.7209 25.9794 53.7209 25.9845C51.5979 26.4155 50 28.2925 50 30.5427C50 33.1115 52.0824 35.1939 54.6511 35.1939"/><path fill="#F1F5F9" d="M60.2291 35.193V29.7666ZM60.2291 29.7666L62.3997 31.9372ZM60.2291 29.7666L58.0586 31.9372Z"/><path stroke="#90A1B9" stroke-linecap="round" stroke-linejoin="round" stroke-width="2" d="M60.2291 35.193V29.7666M60.2291 29.7666L62.3997 31.9372M60.2291 29.7666L58.0586 31.9372"/></svg>